{"title":"The Book of Life 2014 CAMRip XviD - INFERNO","uid":11318244,"size":448590452,"categoryP":"video","categoryS":"movies","magnet":"?xt=urn:btih:2986637f570a094735b3621d0d3ccf77526a428a&amp;dn=The+Book+of+Life+2014+CAMRip+XviD+-+INFERNO&amp;tr=udp%3A%2F%2Ftracker.openbittorrent.com%3A80&amp;tr=udp%3A%2F%2Fopen.demonii.com%3A1337&amp;tr=udp%3A%2F%2Ftracker.coppersurfer.tk%3A6969&amp;tr=udp%3A%2F%2Fexodus.desync.com%3A6969","seeders":8,"leechers":5,"uploader":"xxxlavalxxx","files":-1,"time":1414572057,"description":"[IMG]http://i.imgur.com/MkO5MQo.jpg[/IMG]\n &lt;a href=&quot;\nhttp://www.imdb.com/title/tt2262227/&quot; rel=&quot;nofollow&quot; target=&quot;_NEW&quot;&gt;\nhttp://www.imdb.com/title/tt2262227/&lt;/a&gt;\n\n\nManolo, a young man who is torn between fulfilling the expectations of his family and following his heart, embarks on an adventure that spans three fantastic worlds where he must face his greatest fears.\n\nDirector: Jorge R. Gutierrez\nWriters: Jorge R. Gutierrez (screenplay), Douglas Langdale\nStars: Diego Luna, Zoe Saldana, Channing Tatum\nGenres: Animation | Adventure | Comedy | Family | Fantasy | Romance\nCountry: USA\nLanguage: English\n\n\nGeneral\nComplete name                            : The Book of Life 2014 CAMRip XviD - INFERNO.avi\nFormat                                   : AVI\nFormat/Info                              : Audio Video Interleave\nFile size                                : 422 MiB\nDuration                                 : 1h 21mn\nOverall bit rate                         : 720 Kbps\n\nVideo\nID                                       : 0\nFormat                                   : MPEG-4 Visual\nFormat profile                           : Advanced Simple@L5\nFormat settings, BVOP                    : 2\nFormat settings, QPel                    : No\nFormat settings, GMC                     : No warppoints\nFormat settings, Matrix                  : Default (H.263)\nMuxing mode                              : Packed bitstream\nCodec ID                                 : XVID\nCodec ID/Hint                            : XviD\nDuration                                 : 1h 21mn\nBit rate                                 : 580 Kbps\nWidth                                    : 560 pixels\nHeight                                   : 260 pixels\nDisplay aspect ratio                     : 2.2:1\nFrame rate                               : 23.976 fps\nColor space                              : YUV\nChroma subsampling                       : 4:2:0\nBit depth                                : 8 bits\nScan type                                : Progressive\nCompression mode                         : Lossy\nBits/(Pixel*Frame)                       : 0.166\nStream size                              : 340 MiB (81%)\nWriting library                          : XviD 64\n\nAudio\nID                                       : 1\nFormat                                   : MPEG Audio\nFormat version                           : Version 1\nFormat profile                           : Layer 3\nMode                                     : Joint stereo\nCodec ID                                 : 55\nCodec ID/Hint                            : MP3\nDuration                                 : 1h 21mn\nBit rate mode                            : Constant\nBit rate                                 : 128 Kbps\nChannel(s)                               : 2 channels\nSampling rate                            : 44.1 KHz\nCompression mode                         : Lossy\nStream size                              : 75.0 MiB (18%)\nAlignment                                : Aligned on interleaves\nInterleave, duration                     : 26 ms (0.63 video frame)\nInterleave, preload duration             : 260 ms\n\n\n &lt;a href=&quot;\nhttp://i.imgur.com/lq4xuEu.png&quot; rel=&quot;nofollow&quot; target=&quot;_NEW&quot;&gt;\nhttp://i.imgur.com/lq4xuEu.png&lt;/a&gt; &lt;a href=&quot;\nhttp://i.imgur.com/5Wbu1Od.png&quot; rel=&quot;nofollow&quot; target=&quot;_NEW&quot;&gt;\nhttp://i.imgur.com/5Wbu1Od.png&lt;/a&gt; &lt;a href=&quot;\nhttp://i.imgur.com/RKS8SNB.png&quot; rel=&quot;nofollow&quot; target=&quot;_NEW&quot;&gt;\nhttp://i.imgur.com/RKS8SNB.png&lt;/a&gt; &lt;a href=&quot;\nhttp://i.imgur.com/4C1oxxS.png&quot; rel=&quot;nofollow&quot; target=&quot;_NEW&quot;&gt;\nhttp://i.imgur.com/4C1oxxS.png&lt;/a&gt;","torrent":{"xt":"urn:btih:2986637f570a094735b3621d0d3ccf77526a428a","amp;dn":"The+Book+of+Life+2014+CAMRip+XviD+-+INFERNO","amp;tr":["udp%3A%2F%2Ftracker.openbittorrent.com%3A80","udp%3A%2F%2Fopen.demonii.com%3A1337","udp%3A%2F%2Ftracker.coppersurfer.tk%3A6969","udp%3A%2F%2Fexodus.desync.com%3A6969"],"infoHash":"2986637f570a094735b3621d0d3ccf77526a428a","infoHashBuffer":{"type":"Buffer","data":[41,134,99,127,87,10,9,71,53,179,98,29,13,60,207,119,82,106,66,138]},"announce":[],"urlList":[]}}